<mxfile host="65bd71144e">
    <diagram id="Z8LOxmhDQHYhRFIqY7z4" name="Page-1">
        <mxGraphModel dx="1426" dy="1374" grid="1" gridSize="10" guides="1" tooltips="1" connect="1" arrows="1" fold="1" page="1" pageScale="1" pageWidth="1169" pageHeight="1654" math="0" shadow="0">
            <root>
                <mxCell id="0"/>
                <mxCell id="1" parent="0"/>
                <mxCell id="129" style="edgeStyle=none;html=1;exitX=1;exitY=0.5;exitDx=0;exitDy=0;strokeColor=#C2C2C2;entryX=0;entryY=0.5;entryDx=0;entryDy=0;" parent="1" source="8" target="99" edge="1">
                    <mxGeometry relative="1" as="geometry">
                        <mxPoint x="117" y="270" as="targetPoint"/>
                    </mxGeometry>
                </mxCell>
                <mxCell id="8" value="Laptop" style="strokeColor=#dddddd;shadow=1;strokeWidth=1;rounded=1;absoluteArcSize=1;arcSize=2;labelPosition=center;verticalLabelPosition=middle;align=center;verticalAlign=bottom;spacingLeft=0;fontColor=#999999;fontSize=12;whiteSpace=wrap;spacingBottom=2;" parent="1" vertex="1">
                    <mxGeometry x="7" y="130" width="70" height="85" as="geometry"/>
                </mxCell>
                <mxCell id="9" value="" style="sketch=0;dashed=0;connectable=0;html=1;fillColor=#757575;strokeColor=none;shape=mxgraph.gcp2.laptop;part=1;" parent="8" vertex="1">
                    <mxGeometry x="0.5" width="50" height="33" relative="1" as="geometry">
                        <mxPoint x="-25" y="18.5" as="offset"/>
                    </mxGeometry>
                </mxCell>
                <mxCell id="10" value="Users" style="strokeColor=#dddddd;shadow=1;strokeWidth=1;rounded=1;absoluteArcSize=1;arcSize=2;labelPosition=center;verticalLabelPosition=middle;align=center;verticalAlign=bottom;spacingLeft=0;fontColor=#999999;fontSize=12;whiteSpace=wrap;spacingBottom=2;" parent="1" vertex="1">
                    <mxGeometry x="7" y="10" width="70" height="85" as="geometry"/>
                </mxCell>
                <mxCell id="11" value="" style="sketch=0;dashed=0;connectable=0;html=1;fillColor=#757575;strokeColor=none;shape=mxgraph.gcp2.users;part=1;" parent="10" vertex="1">
                    <mxGeometry x="0.5" width="50" height="31.5" relative="1" as="geometry">
                        <mxPoint x="-25" y="19.25" as="offset"/>
                    </mxGeometry>
                </mxCell>
                <mxCell id="130" style="edgeStyle=none;html=1;strokeColor=#C2C2C2;entryX=0;entryY=0.5;entryDx=0;entryDy=0;" parent="1" source="99" target="140" edge="1">
                    <mxGeometry relative="1" as="geometry">
                        <Array as="points">
                            <mxPoint x="247" y="300"/>
                        </Array>
                        <mxPoint x="360" y="320" as="targetPoint"/>
                    </mxGeometry>
                </mxCell>
                <mxCell id="99" value="" style="fillColor=#F6F6F6;strokeColor=none;shadow=0;gradientColor=none;fontSize=14;align=left;spacing=10;fontColor=#717171;9E9E9E;verticalAlign=top;spacingTop=-4;fontStyle=0;spacingLeft=40;html=1;" parent="1" vertex="1">
                    <mxGeometry x="147" y="104.5" width="200" height="136" as="geometry"/>
                </mxCell>
                <mxCell id="101" value="" style="sketch=0;points=[[0,0,0],[0.25,0,0],[0.5,0,0],[0.75,0,0],[1,0,0],[1,0.25,0],[1,0.5,0],[1,0.75,0],[1,1,0],[0.75,1,0],[0.5,1,0],[0.25,1,0],[0,1,0],[0,0.75,0],[0,0.5,0],[0,0.25,0]];rounded=1;absoluteArcSize=1;arcSize=2;html=1;strokeColor=none;gradientColor=none;shadow=0;dashed=0;fontSize=12;fontColor=#9E9E9E;align=left;verticalAlign=top;spacing=10;spacingTop=-4;fillColor=#ECEFF1;movable=0;resizable=0;rotatable=0;deletable=0;editable=0;connectable=0;" parent="99" vertex="1">
                    <mxGeometry width="160" height="80" relative="1" as="geometry">
                        <mxPoint x="20" y="40" as="offset"/>
                    </mxGeometry>
                </mxCell>
                <mxCell id="125" value="" style="shape=image;verticalLabelPosition=bottom;labelBackgroundColor=default;verticalAlign=top;aspect=fixed;imageAspect=0;image=data:image/svg+xml,PHN2ZyB4bWxucz0iaHR0cDovL3d3dy53My5vcmcvMjAwMC9zdmciIHN0eWxlPSJ3aWR0aDoyMDRweDtoZWlnaHQ6MzBweCIgdmlld0JveD0iMCAwIDIwNCAzMCIgZmlsbD0ibm9uZSIgaGVpZ2h0PSIzMCIgd2lkdGg9IjIwNCI+PGcgY2xpcC1wYXRoPSJ1cmwoI2EpIj48cGF0aCBkPSJNNTIuNjg4IDEzLjAyOGMtLjIyIDAtLjQzNy4wMDgtLjY1NC4wMTVhLjI5Ny4yOTcgMCAwIDAtLjEwMi4wMjQuMzY1LjM2NSAwIDAgMC0uMjM2LjI1NWwtLjkzIDMuMjQ5Yy0uNDAxIDEuMzk3LS4yNTIgMi42ODcuNDIyIDMuNjM0LjYxOC44NzYgMS42NDYgMS4zOSAyLjg5NCAxLjQ1bDUuMDQ1LjMwNmMuMTUuMDA4LjI4LjA4LjM1OS4xOTlhLjQ5Mi40OTIgMCAwIDEgLjA1MS40MzQuNjQuNjQgMCAwIDEtLjU0Ny40MjZsLTUuMjQyLjMwNmMtMi44NDguMTMyLTUuOTEyIDIuNDU2LTYuOTg3IDUuMjlsLS4zNzggMWEuMjguMjggMCAwIDAgLjI0OC4zODJoMTguMDU0YS40OC40OCAwIDAgMCAuNDY0LS4zNSAxMy4xMiAxMy4xMiAwIDAgMCAuNDgtMy41NGMwLTcuMjItNS43ODktMTMuMDcyLTEyLjkzMy0xMy4wNzIiIGZpbGw9IiNGQkFENDEiLz48cGF0aCBkPSJNODUuNTE5IDE4Ljg4NmgyLjk5djguMjQ5aDUuMjE4djIuNjQ3aC04LjIwOFYxOC44ODZaTTk2LjgxOSAyNC4zNjV2LS4wMzJjMC0zLjEzIDIuNDkzLTUuNjY1IDUuODIxLTUuNjY1IDMuMzI3IDAgNS43ODkgMi41MDggNS43ODkgNS42MzN2LjAzMmMwIDMuMTI5LTIuNDkzIDUuNjY1LTUuODIxIDUuNjY1cy01Ljc5LTIuNTA1LTUuNzktNS42MzNabTguNTYyIDB2LS4wMzJjMC0xLjU3My0xLjEyMy0yLjk0Mi0yLjc3My0yLjk0Mi0xLjY1IDAtMi43MjUgMS4zMzctMi43MjUgMi45MXYuMDMyYzAgMS41NzIgMS4xMjIgMi45NDIgMi43NTcgMi45NDIgMS42MzQgMCAyLjc0MS0xLjMzOCAyLjc0MS0yLjkxWk0xMTIuMDg2IDI1LjAwM1YxOC44OWgzLjAzM3Y2LjA1NWMwIDEuNTcyLjc4MyAyLjMxNyAxLjk4NSAyLjMxNyAxLjIwMSAwIDEuOTg1LS43MTcgMS45ODUtMi4yNDJ2LTYuMTM0aDMuMDMydjYuMDM5YzAgMy41MTktMS45ODUgNS4wNTYtNS4wNDkgNS4wNTZzLTQuOTktMS41NzMtNC45OS00Ljk4TTEyNi42OTQgMTguODg5aDQuMTU5YzMuODQ4IDAgNi4wODEgMi4yNDEgNi4wODEgNS4zODJ2LjAzMmMwIDMuMTQtMi4yNjUgNS40NzctNi4xNDQgNS40NzdoLTQuMDk2VjE4Ljg4NnYuMDA0Wm00LjIwMiA4LjIxNmMxLjc4OCAwIDIuOTctLjk5NSAyLjk3LTIuNzU0di0uMDMyYzAtMS43NDQtMS4xODUtMi43NTUtMi45Ny0yLjc1NWgtMS4yMTd2NS41NDFoMS4yMTdaTTE0MS4yNzcgMTguODg2aDguNjIxdjIuNjQ4aC01LjYzNnYxLjg1aDUuMDk2djIuNTA1aC01LjA5NnYzLjg5M2gtMi45ODVWMTguODg2Wk0xNTQuMDU0IDE4Ljg4NmgyLjk4OXY4LjI0OWg1LjIxOXYyLjY0N2gtOC4yMDhWMTguODg2Wk0xNzAuMDY3IDE4LjgwOWgyLjg3OGw0LjU4OSAxMC45NzFoLTMuMjAybC0uNzg4LTEuOTQ2aC00LjE1OWwtLjc2OCAxLjk0NmgtMy4xNDNsNC41ODktMTAuOTcxaC4wMDRabTIuNjE5IDYuNjc2LTEuMjAyLTMuMDk3LTEuMjE3IDMuMDk3aDIuNDE5Wk0xODEuMzgzIDE4Ljg4OWg1LjA5NmMxLjY0NyAwIDIuNzg5LjQzOCAzLjUwOSAxLjE4Mi42MzUuNjIxLjk1NCAxLjQ2NS45NTQgMi41MzZ2LjAzMmMwIDEuNjY0LS44NzkgMi43Ny0yLjIxOCAzLjM0NGwyLjU3MiAzLjc5N2gtMy40NWwtMi4xNy0zLjNoLTEuMzA4djMuM2gtMi45ODlWMTguODg2bC4wMDQuMDA0Wm00Ljk1OSA1LjIzYzEuMDE2IDAgMS42MDItLjQ5NyAxLjYwMi0xLjI5di0uMDMxYzAtLjg1Ni0uNjE0LTEuMjktMS42MTgtMS4yOWgtMS45NTR2Mi42MTZoMS45NzNsLS4wMDMtLjAwNFpNMTk1LjI1MyAxOC44ODZoOC42Njl2Mi41NjhoLTUuNzExdjEuNjQ4aDUuMTc1djIuMzg0aC01LjE3NXYxLjcyOGg1Ljc5djIuNTY4aC04Ljc0OFYxOC44ODZaTTc4Ljk3NiAyNS42NDJjLS40MTguOTU2LTEuMyAxLjYzMy0yLjQ3IDEuNjMzLTEuNjMgMC0yLjc1Ni0xLjM3LTIuNzU2LTIuOTQyVjI0LjNjMC0xLjU3MyAxLjA5NC0yLjkxIDIuNzI1LTIuOTEgMS4yMjkgMCAyLjE2Ni43NjQgMi41NjQgMS44MDdoMy4xNDdjLS41MDUtMi41OTEtMi43NTctNC41My01LjY4My00LjUzLTMuMzI0IDAtNS44MjEgMi41MzYtNS44MjEgNS42NjV2LjAzMmMwIDMuMTI5IDIuNDYxIDUuNjMzIDUuNzkgNS42MzMgMi44NDMgMCA1LjA2OC0xLjg2NCA1LjY1NS00LjM2aC0zLjE1NWwuMDA0LjAwNFoiIGZpbGw9IiMwMDAiLz48cGF0aCBkPSJtNDQuODA4IDI5LjU3OC4zMzQtMS4xNzVjLjQwMi0xLjM5Ny4yNTMtMi42ODctLjQyLTMuNjM0LS42Mi0uODc2LTEuNjQ3LTEuMzktMi44OTYtMS40NWwtMjMuNjY1LS4zMDZhLjQ2Ny40NjcgMCAwIDEtLjM3NC0uMTk5LjQ5Mi40OTIgMCAwIDEtLjA1Mi0uNDM0LjY0LjY0IDAgMCAxIC41NTItLjQyNmwyMy44ODYtLjMwNmMyLjgzNi0uMTMxIDUuOS0yLjQ1NiA2Ljk3NS01LjI5bDEuMzYyLTMuNmEuOTE0LjkxNCAwIDAgMCAuMDQtLjQ3N0M0OC45OTggNS4yNTkgNDIuNzkgMCAzNS4zNjggMGMtNi44NDIgMC0xMi42NDcgNC40NjItMTQuNzMgMTAuNjY1YTYuOTIgNi45MiAwIDAgMC00LjkxMS0xLjM3NGMtMy4yOC4zMy01LjkyIDMuMDAyLTYuMjQ2IDYuMzE4YTcuMTQ4IDcuMTQ4IDAgMCAwIC4xOCAyLjQ3MmMtNS4zNi4xNi05LjY2IDQuNTk4LTkuNjYgMTAuMDUyIDAgLjQ5My4wMzUuOTc5LjEwNiAxLjQ1M2EuNDYuNDYgMCAwIDAgLjQ1Ny40MDJoNDMuNzA0YS41Ny41NyAwIDAgMCAuNTQtLjQxOCIgZmlsbD0iI0Y2ODIxRiIvPjwvZz48ZGVmcz48Y2xpcFBhdGggaWQ9ImEiPjxwYXRoIGQ9Ik0wIDBoMjA0djMwSDB6IiBmaWxsPSIjRkZGIi8+PC9jbGlwUGF0aD48L2RlZnM+PC9zdmc+;movable=0;resizable=0;rotatable=0;deletable=0;editable=0;connectable=0;" parent="99" vertex="1">
                    <mxGeometry x="20" y="11" width="136" height="20" as="geometry"/>
                </mxCell>
                <mxCell id="30" value="" style="shape=image;verticalLabelPosition=bottom;labelBackgroundColor=default;verticalAlign=top;aspect=fixed;imageAspect=0;image=data:image/svg+xml,PHN2ZyB4bWxucz0iaHR0cDovL3d3dy53My5vcmcvMjAwMC9zdmciIHZpZXdCb3g9IjAgMCAxNzQgNjgiPjxkZWZzPjxsaW5lYXJHcmFkaWVudCB5Mj0iMTAxLjYyJSIgeTE9Ii0yLjM5JSIgeDI9IjEwLjglIiB4MT0iMTE4LjE4JSIgaWQ9ImNsb3VkZmxhcmUtcGFnZXMtbG9nby1ncmFkaWVudCI+PHN0b3Agc3RvcC1jb2xvcj0iI2ZiYjc0MyIgb2Zmc2V0PSIwJSIvPjxzdG9wIHN0b3AtY29sb3I9IiNmMjgzMzMiIG9mZnNldD0iMTAwJSIvPjxzdG9wIHN0b3AtY29sb3I9IiNlYTZiMDAiIG9mZnNldD0iMTAwJSIvPjwvbGluZWFyR3JhZGllbnQ+PC9kZWZzPjxwYXRoIGQ9Ik03NS45NCA1NFYzMGg5LjQ3YzUuNDQgMCA4LjYgMy4zNiA4LjYgOC4xMyAwIDQuOC0zLjIxIDguMDktOC43MyA4LjA5SDgxVjU0aC01LjA3ek04MSA0Mi4xNWgzLjQ1YzIuOSAwIDQuMzItMS42NCA0LjMyLTQuMDIgMC0yLjM5LTEuNDItMy45OC00LjM1LTMuOThoLTMuNDJ2OHptMTkuNDggMTIuMTljLTMuNDMgMC01Ljk4LTEuOC01Ljk4LTUuMzcgMC00LjAyIDMuMi01LjIxIDYuNzctNS41NCAzLjEyLS4zIDQuMzUtLjQ2IDQuMzUtMS42MnYtLjA3YzAtMS40Ny0uOTctMi4zMy0yLjY3LTIuMzMtMS43OSAwLTIuODYuODgtMy4yIDIuMDdsLTQuNjEtLjM3Yy42OS0zLjI4IDMuNTItNS4zNCA3Ljg0LTUuMzQgNCAwIDcuNjQgMS44IDcuNjQgNi4wOVY1NGgtNC43NHYtMi41aC0uMTRjLS44OCAxLjY4LTIuNiAyLjg0LTUuMjYgMi44NHptMS40My0zLjQ1YzIuMiAwIDMuNzUtMS40NCAzLjc1LTMuMzJ2LTEuOTFjLS42LjQtMi4zOC42NS0zLjQ3LjgtMS43Ni4yNS0yLjkyLjk0LTIuOTIgMi4zNSAwIDEuMzcgMS4xIDIuMDggMi42NCAyLjA4em0xOS4zMiAxMC4yM2MtNC44NiAwLTcuNjMtMi4xNy04LjIzLTUuMDFsNC42Mi0uNjJjLjQgMS4wOSAxLjUyIDIuMDUgMy43MiAyLjA1IDIuMTcgMCAzLjc1LS45NiAzLjc1LTMuNDN2LTMuM2gtLjJjLS42NiAxLjUtMi4yNyAyLjkzLTUuMTQgMi45My00LjA2IDAtNy4zLTIuNzktNy4zLTguNzggMC02LjEyIDMuMzQtOS4yIDcuMjktOS4yIDMgMCA0LjQ3IDEuOCA1LjE0IDMuMjZoLjE5VjM2aDQuOTZ2MTguMThjMCA0LjYtMy42NiA2Ljk0LTguOCA2Ljk0em0uMS0xMS4xM2MyLjQgMCAzLjc5LTEuODcgMy43OS01LjA1IDAtMy4xNS0xLjM2LTUuMi0zLjc5LTUuMi0yLjQ3IDAtMy43OCAyLjE0LTMuNzggNS4yIDAgMy4xIDEuMzMgNS4wNSAzLjc4IDUuMDV6bTE5LjUgNC4zNmMtNS41NCAwLTguOTMtMy41Ni04LjkzLTkuMjcgMC01LjU1IDMuNDQtOS4zMSA4LjczLTkuMzEgNC43NiAwIDguNDYgMy4wMiA4LjQ2IDkuMTR2MS4zN2gtMTIuMjVjMCAyLjcgMS41OCA0LjM1IDQuMDggNC4zNSAxLjY2IDAgMi45NS0uNzIgMy40NS0yLjFsNC42Mi4zMWMtLjcgMy4zNC0zLjcgNS41MS04LjE2IDUuNTF6bS00LTExLjE3aDcuNTdhMy41NSAzLjU1IDAgMDAtMy42OC0zLjY5IDMuOCAzLjggMCAwMC0zLjg4IDMuN3ptMjkuMTItMi4wNWwtNC41Ny4yOGMtLjI1LTEuMTYtMS4yOC0yLjEtMy4wMS0yLjEtMS41NSAwLTIuNzcuNy0yLjc2IDEuNzggMCAuODYuNjEgMS40NCAyLjI5IDEuOGwzLjI2LjY2YzMuNDkuNzEgNS4xOSAyLjI3IDUuMiA0Ljg3LS4wMSAzLjU1LTMuMzUgNS45My04LjAyIDUuOTMtNC43NyAwLTcuNy0yLjEyLTguMTYtNS41Nmw0LjktLjI2Yy4zMSAxLjQ2IDEuNSAyLjIyIDMuMjggMi4yMiAxLjc0IDAgMi45LS43NiAyLjkyLTEuODItLjAyLS45LS43My0xLjQ4LTIuMy0xLjhsLTMuMTItLjYyYy0zLjUyLS43LTUuMjItMi40NS01LjItNS4xNC0uMDItMy40NyAzLjAyLTUuNiA3LjYyLTUuNiA0LjU1IDAgNy4yMiAyLjA1IDcuNjcgNS4zNnoiIGZpbGw9ImN1cnJlbnRDb2xvciIvPjxwYXRoIGQ9Ik04NC4xNCAxNy44NmgtMi4wMmMtLjE1LTEuMDQtLjk0LTEuNjgtMi4wMy0xLjY4LTEuNDcgMC0yLjQzIDEuMTMtMi40MyAzLjEgMCAyLjAxLjk4IDMuMDggMi40MSAzLjA4IDEuMDcgMCAxLjg2LS41OCAyLjA1LTEuNmwyLjAyLjAyYy0uMjEgMS43NC0xLjY4IDMuMzUtNC4xIDMuMzUtMi41MyAwLTQuNC0xLjc3LTQuNC00Ljg2IDAtMy4wOSAxLjktNC44NSA0LjQtNC44NSAyLjE5IDAgMy44NCAxLjI1IDQuMSAzLjQ0em0yLjgzLTMuMzFWMjRIODV2LTkuNDVoMS45N3ptNC4yMyA5LjU5Yy0yLjE2IDAtMy41LTEuNDctMy41LTMuNjYgMC0yLjIgMS4zNC0zLjY2IDMuNS0zLjY2IDIuMTUgMCAzLjQ5IDEuNDYgMy40OSAzLjY2IDAgMi4xOS0xLjM0IDMuNjYtMy41IDMuNjZ6bTAtMS41MmMuOTggMCAxLjQ5LS45MSAxLjQ5LTIuMTUgMC0xLjI0LS41MS0yLjE1LTEuNDktMi4xNS0uOTkgMC0xLjUuOTEtMS41IDIuMTUgMCAxLjI0LjUxIDIuMTUgMS41IDIuMTV6bTguNzctMS42NHYtNC4wN2gxLjk3VjI0aC0xLjg5di0xLjI5aC0uMDdjLS4zMi44My0xLjA5IDEuMzgtMi4xNSAxLjM4LTEuNDMgMC0yLjQtMS0yLjQtMi42N3YtNC41MWgxLjk2djQuMTZjMCAuODQuNDkgMS4zNiAxLjIzIDEuMzYuNyAwIDEuMzYtLjUgMS4zNS0xLjQ1em01LjYgMy4xNGMtMS42IDAtMi44Ny0xLjI4LTIuODctMy42NiAwLTIuNDMgMS4zMi0zLjY0IDIuODctMy42NCAxLjE5IDAgMS43Ni43IDIuMDIgMS4yOGguMDZ2LTMuNTVoMS45NlYyNGgtMS45NHYtMS4xNGgtLjA4YTIuMSAyLjEgMCAwMS0yLjAxIDEuMjZ6bS42My0xLjU3Yy45NSAwIDEuNS0uODMgMS41LTIuMSAwLTEuMjYtLjU0LTIuMDctMS41LTIuMDctLjk3IDAtMS40OS44NS0xLjQ5IDIuMDcgMCAxLjI0LjUzIDIuMSAxLjUgMi4xem04LjMtNS42NHYxLjQ4aC0xLjQyVjI0aC0xLjk2di01LjYxaC0xVjE2LjloMXYtLjUxYzAtMS41NSAxLTIuMyAyLjMyLTIuMy42MSAwIDEuMTUuMTIgMS40LjJsLS4zNSAxLjQ3Yy0uMTYtLjA1LS40LS4xLS42My0uMS0uNTggMC0uNzguMjgtLjc4Ljc2di40OGgxLjQxem0yLjYyLTIuMzZWMjRoLTEuOTd2LTkuNDVoMS45N3ptMy4wNCA5LjU4Yy0xLjM1IDAtMi4zNS0uNy0yLjM1LTIuMTEgMC0xLjU4IDEuMjYtMi4wNSAyLjY2LTIuMTggMS4yNC0uMTIgMS43Mi0uMTggMS43Mi0uNjR2LS4wM2MwLS41OC0uMzgtLjkyLTEuMDUtLjkyLS43IDAtMS4xMy4zNS0xLjI2LjgybC0xLjgyLS4xNWMuMjctMS4zIDEuMzktMi4xIDMuMDktMi4xIDEuNTggMCAzIC43IDMgMi40VjI0aC0xLjg2di0uOThoLS4wNWMtLjM1LjY2LTEuMDMgMS4xMS0yLjA4IDEuMTF6bS41Ny0xLjM1Yy44NiAwIDEuNDctLjU3IDEuNDctMS4zMXYtLjc2Yy0uMjMuMTYtLjkzLjI2LTEuMzYuMzItLjcuMS0xLjE1LjM3LTEuMTUuOTJzLjQzLjgzIDEuMDQuODN6bTQuNDEgMS4yMnYtNy4xaDEuOXYxLjI1aC4wOGMuMjYtLjg4LjkxLTEuMzQgMS43LTEuMzQuMiAwIC40NS4wMy42Mi4wN3YxLjc0YTMuMyAzLjMgMCAwMC0uODMtLjFjLS44NiAwLTEuNS42LTEuNSAxLjQ3VjI0aC0xLjk3em03LjY3LjE0Yy0yLjE4IDAtMy41Mi0xLjQtMy41Mi0zLjY1IDAtMi4yIDEuMzYtMy42NyAzLjQ0LTMuNjcgMS44OCAwIDMuMzQgMS4xOSAzLjM0IDMuNnYuNTRoLTQuODNjMCAxLjA2LjYyIDEuNzEgMS42IDEuNzEuNjYgMCAxLjE3LS4yOCAxLjM2LS44MmwxLjgyLjEyYy0uMjcgMS4zMS0xLjQ2IDIuMTctMy4yIDIuMTd6bS0xLjU3LTQuNGgyLjk3YzAtLjg1LS42LTEuNDYtMS40NS0xLjQ2YTEuNSAxLjUgMCAwMC0xLjUyIDEuNDZ6IiBmaWxsLW9wYWNpdHk9Ii42IiBmaWxsPSJjdXJyZW50Q29sb3IiLz48cGF0aCBkPSJNNDUuOTQgMTBINjBsMiAydjQ0bC0yIDJINDAuODRsLjk3LTEuNWgxNy41N2wxLjEyLTEuMTJWMTIuNjJsLTEuMTItMS4xMkg0Ny4yNmwtMS40MyA3LjM5SDQ0LjNsMS4zNy03LjQ2LjI4LTEuNDN6TTEyIDU4bC0yLTJWMTJsMi0yaDE5LjlsLTEuMDEgMS41SDEyLjYybC0xLjEyIDEuMTJ2NDIuNzZsMS4xMiAxLjEySDI3LjFsLS4yNCAxLjVIMTJ6bTMtNWg4LjVsLS4zIDEuNUgxNGwtLjUtLjV2LTlsMS41IDN2NXptMzQgMGwxLjUgMS41SDQzbDEtMS41aDV6IiBmaWxsPSIjYjdiYmJkIi8+PHBhdGggZD0iTTMyLjY3IDQwSDE5bC0xLjY2LTMuMTIgMjMtMzQgMy42MiAxLjVMMzkuNDIgMjhINTNsMS42OCAzLjA5LTIyIDM0LTMuNjYtMS40TDMyLjY3IDQwek0xNS41IDE3YTEuNSAxLjUgMCAxMTAtMyAxLjUgMS41IDAgMDEwIDN6bTQgMGExLjUgMS41IDAgMTEwLTMgMS41IDEuNSAwIDAxMCAzem00IDBhMS41IDEuNSAwIDExMC0zIDEuNSAxLjUgMCAwMTAgM3oiIGZpbGw9InVybCgjY2xvdWRmbGFyZS1wYWdlcy1sb2dvLWdyYWRpZW50KSIvPjwvc3ZnPg==;imageBackground=#FFFFFF;imageBorder=#eaeaea;movable=1;resizable=1;rotatable=1;deletable=1;editable=1;connectable=1;" parent="99" vertex="1">
                    <mxGeometry x="48.82" y="60" width="90.84" height="35.5" as="geometry"/>
                </mxCell>
                <mxCell id="135" style="edgeStyle=none;html=1;entryX=0.5;entryY=0;entryDx=0;entryDy=0;strokeColor=#C2C2C2;" parent="1" source="126" target="99" edge="1">
                    <mxGeometry relative="1" as="geometry">
                        <Array as="points">
                            <mxPoint x="247" y="48"/>
                        </Array>
                    </mxGeometry>
                </mxCell>
                <mxCell id="126" value="" style="dashed=0;outlineConnect=0;html=1;align=center;labelPosition=center;verticalLabelPosition=bottom;verticalAlign=top;shape=mxgraph.weblogos.github;labelBackgroundColor=none;strokeColor=default;strokeWidth=2;fillColor=#FFFFFF;" parent="1" vertex="1">
                    <mxGeometry x="370" y="10" width="75" height="75" as="geometry"/>
                </mxCell>
                <mxCell id="140" value="" style="shape=image;verticalLabelPosition=bottom;labelBackgroundColor=default;verticalAlign=top;aspect=fixed;imageAspect=0;image=data:image/png,iVBORw0KGgoAAAANSUhEUgAAAbgAAABuCAYAAABV2gY1AAAAAXNSR0IArs4c6QAAHgFJREFUeF7tnXdcVVe2x5cNrChixwKiqIBdsWt0LLE37F1siZOZZGY0Tnkz88mbeTOTzMvkk0mx15jYgr0rlpgYe2LEhmBFLAiCgBSRN+vAPZ57ufeefS7nAO/c3/185g/D3mvv9d1nzu/sstYuVeXzT3IJPxAAARAAARAwGYFSEDiTjSjcAQEQAAEQkAhA4PAggAAIgAAImJIABM6UwwqnQAAEQAAEIHB4BkAABEAABExJAAJnymGFUyAAAiAAAhA4PAMgAAIgAAKmJACBM+WwwikQAAEQAAEIHJ4BEAABEAABUxKAwJlyWOEUCIAACIAABA7PAAiAAAiAgCkJQOBMOaxwCgRAAARAAAKHZwAEQAAEQMCUBCBwphxWOAUCIAACIACBwzMAAiAAAiBgSgIQOFMOK5wCARAAARCAwOEZAAEQAAEQMCUBCJwphxVOgQAIgAAIQODwDIAACIAACJiSAATOlMMKp0AABEAABCBweAZAAARAAARMSQACZ8phhVMgAAIgAAIQODwDIAACIAACpiQAgTPlsMIpEAABEAABCByeARAAARAAAVMSgMCZcljhFAiAAAiAAAQOzwAIgAAIgIApCUDgTDmscAoEQAAEQAACh2cABEAABEDAlAQgcKYcVjgFAiAAAiAAgcMzAAIgAAIgYEoCELgiHNaUefOLsDUir8WfFmhPpA+u1HuZm0vVlnxWpP6hMRAAARBwRgACV0TPx/sdOtK8DqFF1BrR4rOnaeHZM1btifTB1XqfnT1Ni2zaKzJn0RAIgAAI2CEAgSuix0JEXPTsiqtC5Wo9CJyeowdbIAACehCAwOlBUcCGyNKggBnhIq4sM7JxPesJdxYFQQAEQMAAAhA4A6Damhzh60trh44ogpbymjgbH0d9tm+zak+kD3rWKzJn0RAIgAAIOCAAgSuCR8Pe8qQ9MXGlK/Zsu7rMqGc9V3xBHRAAARDQkwAETk+aDmxFDh9BHer6Wv3Vnpi40hV7S59Td26jbXFxVubs9cG2PXv1RPYO7dVzxRfUAQEQAAE9CUDg9KTpwJaoCGntiqNlRz330UT2Du21p9WX+c0CKbSuL/lX86ZdN67R+5eitJowtHzTChVocb/+9JsjR+jCsxRD24JxEAABfQhA4PTh6NCKoxmQHqIgujzJQviLDh2deno2Lq5AWIGr9VxB+tP4SdSoWjWpamxSIrXZ+JUrZgypU6ZUKboyaQrVqVyFcl6+pD8cO0yfXrtuSFu/b9mKftmpC319JYoWfX+SknNyDGmnJBgdUrcu1a1UWe7KppuxhfK3m3d1CvLxke3dTkmmA48eSf8e7VufWvhUp9TsbMrKeUnZL186RJCbm0uxycl0LinR5f7wB9FQf39q7lODAry9qXalypSbS/Q08zkdvnmT1l29QjEZGSVhGEzdBwicwcMrKkKudMPIpU9X+lOYOjMbB9BH/V+XTOQSUfDKZXQvK6swJnWre2LUaGpVq45sj1+AzVctp3id+1enXDmKmhFO5UqXkdpiMT0Vd48+OnOa9j16qJs/JcVQ/MzZVMnDQ+7On48foQ8vX3a5e6fDxlHzGjXk+juvX6VJkYelf8dMnU41K1bSbJuF8Hx8HP3t5EmKTHisWt+/fHn6V6/e1Nu/MZVSKZ2ckUH/On2yUD6rdsjNC0DgDH4AjBQhe8uHeswMDUbi0HzcjFlUxdNT+vvaHy/Qz09+V1xdkds9MXI0taptLW5z9+6iDXfu6N632U2a0j/79rf7YnyWmUkXHsbTruhoWh9zg545mYHo2TGevU73b0wjmjWjhl7VqLKnB1Uq50FlS5em7JwcSn+RTTGJibQ9+iqtjdbWr7+170DzO3aSu3v2fhz12WF9+leLLwmz55FHmbyPA9uPkLNh4yhQIX5a7FrK7rh2hSYfiXRYdYqfP30yYCCVKqUmbdYmIq5cpunHjrjSJdRRIQCBM/gRMUqEjFz6NBiJQ/OfdOlKU1u3lf6elJFBjVavcFh2WN169Ga79vTHE8fpdHKy7l3mF/vxkaOpZa3asm3+mp+2cxvtio/XvT2LwaCKlei97t2pt19jKle6tN12eIYbn5JCJ+7eoX03Y2n//TjdBa+tlxd9/LO+0sxV9IXN/YpLSaH3ThwT+gDwLFWK7s+eJ/uZ8eIF1Vq+xCW24xs2pKWDhr76MLl7mwbt3iX/+/Cw4dSxXn3p39kvc+hmYpLDdip7eFC1ChWoQrlyBT42jtyKpeH79hao26pyFToycbLVmLHInrx3ly49eigtefp5eVFI7doUXLM2eZcvb2VDr1PVLsEzcSUInIGDWxLCAwx0T3fTvER3LXyO/FKZuD1CFpO2VbxosL8f9fbzp5a16lD5smWl9v9y4qjuB1K4H4fCxlHDqlUV4pZD47dG0MHHeXs6Rv+qlC5Nb4e0pLFBIfLepKM2Z+7aQVvu3dWlS1XLlKE1ffsLLbE5a/BQbAxNO3RAVXh3DBxErzXyl02FRWyW9820OHRo2HAKzRcwrjd08wY69uSJbGLP4CHUvUEj6d93kpMp5KsvVM3X9fCgxX360mt+/lZCN2LLRopMSLCqf33yVGmP1vL77u4dmnFwv8Nl7CXde9D4kFZWdt89fJA+jzZmb1fVWZMWgMAZOLBG7r/ZmxnyV+DHLuSDtA0pYCR8wETtZ6+eWh21vx8fMYra1KkrFUvJzKCnGZlUt0pleV/Ktv6Wy5do5vFjamaF/x5cqRLtGzOeqiq+sDNzcmjElk30bVKisB09C/p5etJbrdvQwCaB5OvlZfVSTMvOororlunSXED58nRw7ASqUbGilb2rCY9py9UoOnj7Lu0KGysvI//60AFaGXODxjRoQNNbtqYu9RtYzfZ4WXXstgin3PhgyN5xE+T2jt++RUP27tbkD8+2Hylmgo/T0yhg7WorG9tfHyR9HGkROIuBRSEt6Xfde8r2Lj1+SF2/3iL/u0bZshQ7a67DvztyRrnvzGUepqZS0y/WaPIdhZ0TgMAZ+ITYEyEj499cdUXPsAJlH0IqV6ZFHUPpQWoqsUjwrIsPFVQsV076X+VyHlS9QgWqXqEi8bJQhbJlhZfDUjIzKerxQ1py4QJFxN1z1XWrenyqb9WQ4eSZv4/Df+SX9MDNG+li6jNd2rA1Ynl58nLWo7Q01Rccz+zGNw6gIU2aSMuH269fpbe/P1novoVWrUo7wsZJ42L5XXn8mH5x+ACdevpU+k8sJIlz35QFtvXqFXRTcRKQl+lWDxxMTRQnGVmAO65b4/TAUPTkaVS7ct5pSl4+9Fm6WJM/vwkKoj/27C3X+fTMKfrtubO6CRwbujh+IvlV85ZsPs/Optorlsr2ZwU0oQ/7DZD/3fWLNXQpNVXIh/NjxlvxClyxlB5kZwvVRSF1AhA4dUYuldASo6a1AZHga1GbRqbn4iPv73brIdoVh+X45Z/wPJ1uJD6h47dv04bo67ofsea+LuzWw2p2dP8/+1x9t2w09DTnmtd608jmQZLv0U+eUPvNGwrNS6sB3gu7MW2m1ax13cUfaP5331qZ6l+rFm0ZNUZViP7VqTOFt20v1+UZYOiWTQ679V6btvR2567y33975KCmMIwfxk2gxt7Vpfr8rPgvX0KJNuEVhZnBsd1Pu3ajKa3a5LVBRFUVV1Gt7PUahbUIzufyknyWfi48BP/dtp0UFsL9fpaVRTN373BpiVa4QTcrCIEzaMCLev/NVTeMTM81r2kgvf+zfkJdy8rJobTsbErOeC6Vt3wt81F5vxVLXY5HEmk8ov8A6tu4iVXRk/fuSIcUcjh4ycDfyVFjKLhWLamF9T/9SG98e8LA1uybVu5PcYmFhw/SYjt7QZaXMZeJf/aMmq1f67CvEf1fp76NA+S/T96+lXbE37dbnvf97syaK8/eryckUIctG4U48PLtjzNmyR8m5x/cp9e2bS1Qt7AC90bTQPqH4lnuvHY1XU5Pk9r5vFt3mtSytdymlhkcz8hreXjo/sEmBM8NCkHgDBrkog4PcNUNI9Nz8bLXgtBOlPj8OT1/8YJSMjIoJSuTnmZmSackkzIz6EH6c/lFYfGBl8Luz5wtnWLj36aoSzTrG/322SztBFasSNtHjibfKl4yPpYzXuL6nc0Sl6t81erdnh4un6h7a/9uWnPzlloVXf/ep0YN2hY2Tra57doVmurgKLzyQAgfonh9906nfbk7PVyeFfLsu90mx7NT5SERHoPmK5cJxRl+3LkLTW/TTu7H9J3b7S5ZF1bg/qtVa1rQtbvcjveSz+SPn7dbtKD3evWR/1ZcHyq6PhgmMQaBM2ggjUzPpZaVxJFLtvkwuZxR+2+Fxap8ofAsrsPaVbp+5Y5r0JA+fX2QHDfF/eVZ5Ly9u3U7kSjCIJn3tPLjppoJvtRF7IqWUc4g1Q45XJowWT5Zam+fy7ZN5dIjL8HVWvo5ZTqYEfP+55fDR8kmll84R7869b2qGzenziCf/EMxvC9bf9Vyu3UKK3Cb+/WnAQFNJdu2B3t4BnorfA6VyQ/rYIH+yzdH6YOokpVuThWmCQtA4AwY1JIYoyZ6olPkWh29Dsqoob83I5y8PPPihc7cv0c/27FdrYrQ30fW86XVw0YU2G8bunULRT/PWyItih/HvH0/dbrUlCuHKwrbRz41eWF6uGxm3t6d9OVtxwHsT+ZwzFpeILUyhMNRP2zj3N4+sI9WxsY47LZyxpeQnk6N165y6qLtCcwvL12keSe+0V3gOFzg0vSZsu/2Uskt7t6DJoa0smqbPxjWXLxAK65eFZqNFnY8Ub8gAQicAU+FqJgY0LRDk6JLpiIHWIpK4Kb5+9G/BwyWfXK2j6OFpfKrn+txzNaoA/u0mNClLGcu+d++/SVbarMnS4Oc4zA1J0eXF6ZyhqUWbjCwdm3aODJM6gbPUGot+czhbEwJR3lCcum5M/SbM6cdsvt3l640LT/QnwsN3PiV0xCDLf0HUP/8vVPuUxubU53KhlydwbFIHxk1mkJqvgr4dzR7PTBkGHWu38Cuf2lZWRSTlCilXtt+4wYdT3wVo6fLwwQjdglA4Ax4METFxICmHZoUXTIVuVanKNOBfTc6TH658JH95mtWqgYPO+PKm/pxc96Qi+yPiaYxBw8U5VDIbSkzt/CLr9/OVzNU3h+cExwivTADvKtLx/eVGUX4hZ7Bh3IyM2h39HX6x/lzmo+XK5cnt1yJopnHjjrksLZ3HxrRrIX09zvJTynkq/VCzJR5PJW5Ie1Vru/hQVEzZ8sz6/0cY3dwv8N2Hs2aKwf8qx1M0SpwXb29qW/DRjS/Q6i8F8wdUTtcw6dxfxHa2aqOPQc4a8ux2zfpg9OnDMnEIzQ4blAIAmfAIBuVnsvVrmpZMmWBU/vZ3hauVl7t73wSrqlXVfKpUJ4SMzLofno6RaelSTME/tu5aTPk5aHCzrb4AAvnLLTsl9xMSqLQTV8JzUbU/ND694NDh1En37wv/hUXztE7p74nDv79ZcdO5O+dF3Ml+mPBOxx7g0YdcCwItrZuTZspxSHy750D+2iFk+VDZbJiLXlClbOayJuxNGJ/wTRXyn59P3oMBdXMO1XqLHWX7eyeg86X3Yh2iEspcFzI2W0CnGfTXjZJ3kfsv/FLOS7Q2dj8KiiIRjcPokCfGlZxlfbq/Pgwnobv2F4gtEF07FHOMQEInM5PhxYx0blph+ZK0pIpL/nMbdacxgUFS5nfLXs69jrP+1L8xUxUyipt1pw9O4VyHToC8s3IUdS6dl62FP5xgPWwrzcXOM1p9PhcnjiF6nvlneD847FImhjckprXqGm3WV5CTMvKJl7qKlemDHl5elIVD48CgfFacho+nj1Pfvn2+nIdXUixf88dn4Y9NGGy3K++X30hPOtQBkirLVFyA9P8G9O/BwyU23pr/15aczO2ABNlEmyRHJa2Aqd1bKMePaK5B/a5FPDPe4XDAwKoS4MG1KS6j5Ss2vbH4zpoy0aHY6C1vyifRwACp/OTUJLExOKakRlVtOD7c5u29FZoZ4dJhEVtcSaJFqtXuPzFy0th306cYpXwlsX0zb17aONd/W8JcOTXg/A5cuYQnlHYJlfmL/uvoqIo4mas3eVHno0uCA6h2e3aW10FI5qVX3mC09my84a+/WhQk0DJjSfp6eSvcvhD6a/yhgjRD5OH4XPkJb6fHj2kbhGv0mKxbdu4uT3R12j84UNOHx9bgXMa3ZibK92S8Cg1je6kPKX1UZcK9UFl2zHO+PLrDh1oWGBzeSWBy9x48oTaFUOgv+j/7/4/loPA6TxqJUVMlG6VhCVT5XKcpW/8Ur+dlERPMp7Tw9RnUkovz7JlyadCRWnpjL92a1aqZHe5SCQOy9nQVi9Thg6OGkNNFWmluPzKH87rkvpK5LFKnjffrm88C1t09IjwLImF7kzYOKuUT2oHNLh/yhmc37LFdj8Y2PaDWXPlmZ4WPpyq7bvJ02QUommolPt99jKT/Kl1G/p1l26y3V7r16nesq51D05k/ApbhmMQN48Ks1rFmL17Z5F+ZBXWh5JeHwKn4wgZmZ7L1W4amVFFtE8revaiMUEhcnFeduQX5T8vR6lmCuEX7MRGfvROx07yC5y/vrfqdIfWyp69KEzRN+4kL0cN3bGVEl68EHVRcznblz8b4Cwc70QedmmZig/PcDYQy96iSLCxcl/NURb/v3foSG92CJX803oRrTKbiZYwCFs2H5/+nv5w/pzMWLm0ey8lhYK+XKfKvyQKHHfaNv7PqKQGqoBMWgACp+PAlgQxsXWnuJdM+YbjH6bNlPeKChPPtiA4mAY3DaSFRyKFZzciw8vH9d/v09dquYj3RMK2fm3YDQK2e00bon6iOd8cF+muwzJXJ06hevl7eids7kOzV0l5oMPepZu8FBg9Y5Z8UlHEpqUdniHHKIKf+cTg0L17hP37afwk+Zog5clFZewgG/vHt9/QX3+6qGrXKIHjGLlB9RtQs+rVyd+7On109ozmZ+bJnDfk5WnR5WVVh1FAIgCB0/FBcHTAhJectP742hs9rqMRDQ/Q2j/R8v/TvgP9PP/WZrVYK1GbRpTjgxQRo8LkwHJugzOoLDh8kJbH3DCiSSk7f02+YYHFQJGV39XGYqfOkK+6ETmxqIw7S8/OJt+Vy6xm1LsGDqaejfzk2VvHtavoenq6UPdOh42TDhHxj5cZ+eaBW5mZQnW5kO0NAZZlSOVqAC9x11u2WOgErFECN79ZIP2t96t8qyIZXmwhKOMyryYkUKhgHk5hmG5cEAKn4+DbExNXzdvLEanVVklYMlXmLzwVd5f67dyh1Y0iK8+zjt3DR8nJjy0Nf3b2NC1y4Z69Ius4EfElrdfD58hNivSZ7zHjWZYlvu70/XvUNz9bzIedOtMsxY0AhzSEIGzuN4AGBLxKXr358iUK13hnX94db3Pl/akd167Q5CORdG/GLOkEKf+0zCiNEji+P/DklLxsNPyzjWcUeQaS5rwhrx7sjr5GE1QOzIjYRJk8AhA4nZ4ETv+0Zph6DJloc3oEUxf38iT7qnyxXHz4gLpv/VoUQbGVU15hY+mEWpBysXU2v+HIYSOoQ71Xl9Q6O/av7Kvtjdp85D7zxQurq3OSMzIoaO0q1QB7Xq5bO2AgdfKtLzfBJ16brFquWtceP+Wzw7P/aTu3y9f1cHm+hDYy4bEQeqMEjhtXnvrkfcpuGu6DezOwGf29T1/ZBw4X+ejKFSGfUEidAAROnZFQCeVmvFAFJ4X0SoVVEjKq/KFVK1rYNe9OOF6qGrRpg+Y9CiUqXkr0KV+e9j58WFjMTutzvxd0tb4frjD7h84a45yQhVmiVN6Czu1weEGPrRFCfHgWd3L8JPnCUdtKvEw7ePMG+i4pyak9XlJc1K2nVfJqFsshmze4vF/as7oP7Ro7Xm6X75WzxAmK5Kp0JOSiB1OEAPLJW8V9cFyHRT18z07aFR/v1ATHx+0aM85q71d5DY9o+yjnmAAETqenQ3ndR2FN6iVwxb3/xhw45dSZKdPlZTB+6S2KPOQ06a4tP34Jz2zejCYFt5YyfBTVTDC8cYB0U7MyRRa/ZHt8vVlo30f0OYgPny0JA++/7Im+TiuuXlFNu8UnDX8X2lm6c41vSrf8+LQihwicTk4WbZ6Y7+HRYwtkT2ERGb89wqGtQXXq0KxWralHI/8C2Tp4T2/gpg2qx/fVOnljynSqValSgWJLzp2hBU7yWtpW2D9kKHWp31D6z6J5P9X6Zvk7H8aJmZk3hpYfz+Q2XLpISy/+SOdsAuj54NUHPXtRP/8Aq2dLZN9UtE8ol0cAAqfTk8BLlLn28vuo2F87tOCyplHLk9wVPWxrRfZBx1Ca276jVTU+pXjuwX26lZREt1OSKeZpshQPF+hdnQKqVSO/atXIt0oVqlfZi2rYxMI9TkujgHWrtXbDpfKjfevTyiHDrF5EnIux56YNLgea23bk2qSpVLdKFav/zLOA1KwsSnr+nB49T5PyTnJMoE+FStIelGUfSlmJD12MidhMkQkJLvnKM8lZwSFUqVw5OnD7lt0ZyMKQYJrbriPVqGg/PpFf7Ef+E5g+L/KQqkiLdFJ5yapSPJqtWKrJ/tERI6ldnXqSCa3B6iL97FezFq0fPtLqY0Pub26udCfiS8qlqp7lrYTQUuZxehoFrlujGjYj0heUeUUAAleMT4ORab1Kwv6bEu0XvfvQsPxkvYVFnpKZQfVXrSisGeH6w+rWozVDh1stJbHI9tr4Jd3LyhK246ig8p41V4yxqJy6d5fePX7UpRg6LW32qVGTtoaNLRCgzn24lvCY3j58UHU5U0t7tllLuK4rGT8uTZhEDatWk5rOzMmhmssWa+mGUFn+QNg/ZrzdGaczA5ythdOAXUpNFWoHhcQJQODEWele0kgRKokZVUb51qeFnbtQi5q17GbwcAaYv4A53CLi2hWnd5bpPkj5Bjkgd93QEVYipyWrh7N+cUaLMc2aU9f6DcnXy8vuF769+vyiPhhzg37/3Qm6qUOYgSg7y4EWFrX4lBQ6EHuDPrxwXlMYgGhbXI7ba1HzVY7OT06fEop9U7bB+5SWrDWpmVnU9Is1WrogXJZPf07286cJQcHUpk5dORWb0gBz44M8MYmJ9O7RSFydI0xXe0EInHZmutUwUoRKQnouR6D4q3xEwwbUq0Ej8vP2psrlPKmyh4cU7MpX4iRmPieeIcWnptKdlGTaFhtr2MtTy2Aqg7O1HFHX0gaXZT59ateh4Bo+VM2zPFXx9JSWvu4/e0YxT5/S5cQnUkb7HAe3Y2ttT2t5zqXYtGpV2nY/rtj6oLXPxVWeWTWpWpVqV6wo3Rh/PuGx4bPs4vK1JLYLgSumUTEyRq0kZlQpJsy6N/vXdu2paXUfGnuoeO6Q090hGAQBExOAwBXT4BopQkYufRYTLjQLAiAAApoJQOA0I9OngpEiZOTSpz7ewwoIgAAIGE8AAmc8Y7stGBWjZuTSZzGhQrMgAAIg4BIBCJxL2ApXyUgRMnLps3BeozYIgAAIFC0BCFzR8pZacxT/ZlRX9MqMYlT/YBcEQAAEjCAAgTOCqopNezkijeyGHjcTGNk/2AYBEAABIwhA4IygqmJTz2t1RLpfHOm5RPqFMiAAAiBgJAEInJF07djG8mQRA0dzIAACbksAAlfEQw+BK2LgaA4EQMBtCUDg3Hbo4TgIgAAImJsABM7c4wvvQAAEQMBtCUDg3Hbo4TgIgAAImJsABM7c4wvvQAAEQMBtCUDg3Hbo4TgIgAAImJsABM7c4wvvQAAEQMBtCUDg3Hbo4TgIgAAImJsABM7c4wvvQAAEQMBtCUDg3Hbo4TgIgAAImJsABM7c4wvvQAAEQMBtCUDg3Hbo4TgIgAAImJsABM7c4wvvQAAEQMBtCUDg3Hbo4TgIgAAImJsABM7c4wvvQAAEQMBtCUDg3Hbo4TgIgAAImJsABM7c4wvvQAAEQMBtCUDg3Hbo4TgIgAAImJsABM7c4wvvQAAEQMBtCUDg3Hbo4TgIgAAImJsABM7c4wvvQAAEQMBtCUDg3Hbo4TgIgAAImJsABM7c4wvvQAAEQMBtCUDg3Hbo4TgIgAAImJsABM7c4wvvQAAEQMBtCUDg3Hbo4TgIgAAImJsABM7c4wvvQAAEQMBtCUDg3Hbo4TgIgAAImJsABM7c4wvvQAAEQMBtCUDg3Hbo4TgIgAAImJsABM7c4wvvQAAEQMBtCUDg3Hbo4TgIgAAImJsABM7c4wvvQAAEQMBtCfwfUqdtxaTSjnEAAAAASUVORK5CYII=;" vertex="1" parent="1">
                    <mxGeometry x="360" y="280" width="162" height="40.5" as="geometry"/>
                </mxCell>
            </root>
        </mxGraphModel>
    </diagram>
</mxfile>
